<svg xmlns="http://www.w3.org/2000/svg" width="130" height="25" viewBox="0 0 134 27">
    <g fill="none" fill-rule="evenodd">
        <path fill="#FFF" d="M76 0l.745 1.49A9.953 9.953 0 0 1 82 0h.061c2.094 0 3.868.418 5.335 1.202.747.4 1.412.894 1.989 1.477l-3.577 2.982a3.677 3.677 0 0 0-.854-.627c-.598-.32-1.274-.502-2.298-.53l-.288-.004h-.399c-1.046 0-1.934.209-2.667.601a4.089 4.089 0 0 0-1.701 1.701c-.353.66-.557 1.445-.595 2.358L77 9.47v12.532L72 22V0h4zM4 0l.745 1.49A9.953 9.953 0 0 1 10 0h.061c2.094 0 3.868.418 5.335 1.202a8.178 8.178 0 0 1 3.402 3.402C19.582 6.071 20 7.845 20 9.94V22h-5V9.47c0-.943-.17-1.756-.489-2.443l-.112-.225a4.089 4.089 0 0 0-1.701-1.701c-.66-.353-1.445-.557-2.358-.595l-.31-.006h-.06c-1.047 0-1.935.209-2.668.601a4.089 4.089 0 0 0-1.701 1.701c-.353.66-.557 1.445-.595 2.358L5 9.47V22H0V0h4zm97.061 0c2.094 0 3.868.418 5.335 1.202a8.178 8.178 0 0 1 3.402 3.402C110.582 6.071 111 7.845 111 9.94v2.122c0 2.094-.418 3.868-1.202 5.335a8.178 8.178 0 0 1-3.402 3.402c-1.467.784-3.241 1.202-5.335 1.202h-.122c-2.094 0-3.868-.418-5.335-1.202a8.178 8.178 0 0 1-3.402-3.402C91.418 15.929 91 14.155 91 12.06V9.94c0-2.094.418-3.868 1.202-5.335a8.178 8.178 0 0 1 3.402-3.402C97.071.418 98.845 0 100.94 0h.122zm-68 0c2.094 0 3.868.418 5.335 1.202a8.178 8.178 0 0 1 3.402 3.402C42.582 6.071 43 7.845 43 9.94v2.122c0 .321-.01.635-.03.94L28 13a4.5 4.5 0 0 0 4.5 4.5h1c1.566 0 2.945-.8 3.751-2.013.082.009.165.013.249.013h5l.057-.002a9.481 9.481 0 0 1-.76 1.898 8.178 8.178 0 0 1-3.401 3.402C36.929 21.582 35.155 22 33.06 22h-.122c-2.094 0-3.868-.418-5.335-1.202a8.178 8.178 0 0 1-3.402-3.402C23.418 15.929 23 14.155 23 12.06V9.94c0-2.094.418-3.868 1.202-5.335a8.178 8.178 0 0 1 3.402-3.402C29.071.418 30.845 0 32.94 0h.122zM51 0v12.53l.006.31c.038.913.242 1.698.595 2.358a4.089 4.089 0 0 0 1.701 1.701c.733.392 1.62.601 2.667.601h.062l.309-.006c.913-.038 1.698-.242 2.358-.595a4.089 4.089 0 0 0 1.701-1.701l.112-.225c.32-.687.489-1.5.489-2.442V0h5v22h-4l-.744-1.49A9.953 9.953 0 0 1 56 22h-.061c-2.094 0-3.868-.418-5.335-1.202a8.178 8.178 0 0 1-3.402-3.402C46.418 15.929 46 14.155 46 12.06V0h5zm50.03 4.5h-.06c-1.047 0-1.935.209-2.668.601a4.089 4.089 0 0 0-1.701 1.701c-.353.66-.557 1.445-.595 2.358L96 9.47v3.06c0 1.047.209 1.935.601 2.668a4.089 4.089 0 0 0 1.701 1.701c.66.353 1.445.557 2.358.595l.31.006h.06c1.047 0 1.935-.209 2.668-.601a4.089 4.089 0 0 0 1.701-1.701c.353-.66.557-1.445.595-2.358l.006-.31V9.47c0-1.047-.209-1.935-.601-2.668a4.089 4.089 0 0 0-1.701-1.701c-.733-.392-1.62-.601-2.667-.601zm-67.53 0h-1a4.5 4.5 0 0 0-4.495 4.288L28 9h10l-.005-.212A4.5 4.5 0 0 0 33.5 4.5z"/>
    </g>
</svg>
